<svg viewBox="0 0 28 28" fill="none" xmlns="http://www.w3.org/2000/svg">
<path fill-rule="evenodd" clip-rule="evenodd" d="M11.638 3H21.1981C24.5405 3 27.25 5.69078 27.25 9.01004V18.2401C27.25 21.5592 24.5405 24.25 21.1981 24.25H11.638C9.62974 24.25 8.03865 24.25 6.77514 24.1096C5.47906 23.9656 4.406 23.6636 3.4925 22.9747C3.0368 22.631 2.63032 22.2274 2.28424 21.7748C1.59049 20.8677 1.28639 19.802 1.14136 18.5149C0.999975 17.2602 0.999986 15.6801 1 13.6858V13.5643C0.999986 11.5699 0.999975 9.98985 1.14136 8.73512C1.28639 7.44802 1.59049 6.38238 2.28424 5.47522C2.63032 5.02267 3.0368 4.61901 3.4925 4.27533C4.406 3.58639 5.47906 3.28441 6.77514 3.14037C8.03865 2.99997 9.62974 2.99999 11.638 3ZM21.1981 4.97786C23.4405 4.97786 25.2583 6.78313 25.2583 9.01004V18.2401C25.2583 20.467 23.4405 22.2722 21.1981 22.2722H11.6992C9.61606 22.2722 8.13645 22.2707 6.99663 22.144C5.87659 22.0195 5.20758 21.7846 4.69706 21.3996C4.38526 21.1644 4.10715 20.8882 3.87036 20.5785C3.48265 20.0716 3.246 19.4073 3.12067 18.2949C2.99312 17.163 2.99167 15.6937 2.99167 13.625C2.99167 11.5564 2.99312 10.087 3.12067 8.95507C3.246 7.8428 3.48263 7.17842 3.87036 6.67143C4.10715 6.36179 4.38526 6.08561 4.69706 5.85045C5.20758 5.46543 5.87659 5.23043 6.99663 5.10597C8.13645 4.97931 9.61606 4.97786 11.6992 4.97786H21.1981Z" fill="black"/>
<path fill-rule="evenodd" clip-rule="evenodd" d="M14.2595 9.34432C12.5929 8.37211 10.4998 9.57429 10.4998 11.5038V15.9012C10.4998 17.8307 12.5929 19.0328 14.2595 18.0606L18.0287 15.8619C19.6825 14.8972 19.6825 12.5077 18.0287 11.543L14.2595 9.34432ZM12.9998 11.5038L16.769 13.7025L12.9998 15.9012L12.9998 11.5038Z" fill="black"/>
</svg>
