<svg width="1684" height="1473" viewBox="0 0 1684 1473" fill="none"
  xmlns="http://www.w3.org/2000/svg">
  <path fill-rule="evenodd" clip-rule="evenodd"
    d="M820.278 83.694L651.374 291.703L790.682 508.041L974.235 508.04L1116.35 295.582L820.278 83.694ZM1157.52 234.044L844.215 9.82703C823.149 -5.24888 793.989 -1.32336 777.659 18.7864L609.214 226.23L481.979 28.6407C462.914 -0.964849 419.778 -1.39726 400.124 27.8196L75.5042 510.388C32.2897 520.085 0.00160599 558.684 0.00146484 604.825L0.000152588 1027.06C3.43323e-05 1064.47 24.0066 1096.27 57.4553 1107.9C21.7727 1146.67 0 1198.59 0 1255.49C0 1374.88 95.8562 1472.34 214.935 1472.34C334.014 1472.34 429.87 1374.88 429.87 1255.49C429.87 1200.87 409.809 1150.84 376.641 1112.63H1307.36C1274.19 1150.84 1254.13 1200.87 1254.13 1255.49C1254.13 1374.88 1349.99 1472.34 1469.07 1472.34C1588.14 1472.34 1684 1374.88 1684 1255.49C1684 1198.95 1662.5 1147.32 1627.22 1108.64C1660.17 1097.95 1684 1067 1684 1030.48V645.041C1684 570.617 1624.66 510.054 1550.71 508.09L1352.84 137.826C1326.51 88.5405 1257.14 85.1115 1226.07 131.559L1157.52 234.044ZM1547.24 582.041C1547.16 582.041 1547.08 582.041 1547 582.041L96.7862 582.041C84.2026 582.041 74.0015 592.242 74.0015 604.825L74.0002 1027.06C74.0001 1033.45 79.1829 1038.63 85.5762 1038.63H1601.85C1606.35 1038.63 1610 1034.98 1610 1030.48V645.041C1610 610.326 1581.92 582.168 1547.24 582.041ZM1466.78 508.04L1063.26 508.04L1287.58 172.702L1466.78 508.04ZM214.935 1112.63C292.397 1112.63 355.87 1176.21 355.87 1255.49C355.87 1334.76 292.398 1398.34 214.935 1398.34C137.472 1398.34 74 1334.76 74 1255.49C74 1176.21 137.473 1112.63 214.935 1112.63ZM166.268 508.041L702.667 508.041L440.325 100.638L166.268 508.041ZM1469.07 1112.63C1391.6 1112.63 1328.13 1176.21 1328.13 1255.49C1328.13 1334.76 1391.6 1398.34 1469.07 1398.34C1546.53 1398.34 1610 1334.76 1610 1255.49C1610 1176.21 1546.53 1112.63 1469.07 1112.63Z" />
  <path fill-rule="evenodd" clip-rule="evenodd"
    d="M214.935 1435.34C116.664 1435.34 37 1354.82 37 1255.49C37 1156.16 116.664 1075.63 214.935 1075.63C313.206 1075.63 392.87 1156.16 392.87 1255.49C392.87 1354.82 313.206 1435.34 214.935 1435.34ZM355.87 1255.49C355.87 1176.21 292.397 1112.63 214.935 1112.63C137.473 1112.63 74 1176.21 74 1255.49C74 1334.76 137.472 1398.34 214.935 1398.34C292.398 1398.34 355.87 1334.76 355.87 1255.49Z" />
  <path fill-rule="evenodd" clip-rule="evenodd"
    d="M1469.07 1435.34C1370.79 1435.34 1291.13 1354.82 1291.13 1255.49C1291.13 1156.16 1370.79 1075.63 1469.07 1075.63C1567.34 1075.63 1647 1156.16 1647 1255.49C1647 1354.82 1567.34 1435.34 1469.07 1435.34ZM1469.07 1112.63C1391.6 1112.63 1328.13 1176.21 1328.13 1255.49C1328.13 1334.76 1391.6 1398.34 1469.07 1398.34C1546.53 1398.34 1610 1334.76 1610 1255.49C1610 1176.21 1546.53 1112.63 1469.07 1112.63Z" />
</svg>