<svg viewBox="0 0 13 9" fill="none" xmlns="http://www.w3.org/2000/svg">
<path d="M0.75 1C0.75 0.883968 0.796094 0.772688 0.878141 0.690641C0.960188 0.608594 1.07147 0.5625 1.1875 0.5625H10.8125C10.9285 0.5625 11.0398 0.608594 11.1219 0.690641C11.2039 0.772688 11.25 0.883968 11.25 1C11.25 1.11603 11.2039 1.22731 11.1219 1.30936C11.0398 1.39141 10.9285 1.4375 10.8125 1.4375H1.1875C1.07147 1.4375 0.960188 1.39141 0.878141 1.30936C0.796094 1.22731 0.75 1.11603 0.75 1ZM1.1875 4.9375H5.125C5.24103 4.9375 5.35231 4.89141 5.43436 4.80936C5.51641 4.72731 5.5625 4.61603 5.5625 4.5C5.5625 4.38397 5.51641 4.27269 5.43436 4.19064C5.35231 4.10859 5.24103 4.0625 5.125 4.0625H1.1875C1.07147 4.0625 0.960188 4.10859 0.878141 4.19064C0.796094 4.27269 0.75 4.38397 0.75 4.5C0.75 4.61603 0.796094 4.72731 0.878141 4.80936C0.960188 4.89141 1.07147 4.9375 1.1875 4.9375ZM6 7.5625H1.1875C1.07147 7.5625 0.960188 7.60859 0.878141 7.69064C0.796094 7.77269 0.75 7.88397 0.75 8C0.75 8.11603 0.796094 8.22731 0.878141 8.30936C0.960188 8.39141 1.07147 8.4375 1.1875 8.4375H6C6.11603 8.4375 6.22731 8.39141 6.30936 8.30936C6.39141 8.22731 6.4375 8.11603 6.4375 8C6.4375 7.88397 6.39141 7.77269 6.30936 7.69064C6.22731 7.60859 6.11603 7.5625 6 7.5625ZM11.997 8.30953C11.9564 8.35021 11.9081 8.38248 11.855 8.40449C11.8019 8.42651 11.745 8.43784 11.6875 8.43784C11.63 8.43784 11.5731 8.42651 11.52 8.40449C11.4669 8.38248 11.4186 8.35021 11.378 8.30953L10.2656 7.19937C9.81327 7.49782 9.26623 7.61773 8.73051 7.53586C8.19479 7.45399 7.70853 7.17618 7.36596 6.75625C7.02338 6.33633 6.84888 5.80418 6.87626 5.26294C6.90364 4.72169 7.13096 4.20988 7.51417 3.82667C7.89738 3.44346 8.40919 3.21614 8.95044 3.18876C9.49168 3.16138 10.0238 3.33588 10.4438 3.67846C10.8637 4.02103 11.1415 4.50729 11.2234 5.04301C11.3052 5.57873 11.1853 6.12577 10.8869 6.57812L11.997 7.68828C12.038 7.72895 12.0706 7.77734 12.0928 7.83065C12.115 7.88397 12.1264 7.94115 12.1264 7.99891C12.1264 8.05666 12.115 8.11384 12.0928 8.16716C12.0706 8.22047 12.038 8.26886 11.997 8.30953ZM9.0625 6.6875C9.32209 6.6875 9.57585 6.61052 9.79169 6.4663C10.0075 6.32208 10.1758 6.1171 10.2751 5.87727C10.3744 5.63744 10.4004 5.37354 10.3498 5.11894C10.2991 4.86434 10.1741 4.63048 9.99058 4.44692C9.80702 4.26337 9.57316 4.13836 9.31856 4.08772C9.06396 4.03708 8.80006 4.06307 8.56023 4.16241C8.3204 4.26175 8.11542 4.42997 7.9712 4.64581C7.82698 4.86165 7.75 5.11541 7.75 5.375C7.75 5.7231 7.88828 6.05694 8.13442 6.30308C8.38056 6.54922 8.7144 6.6875 9.0625 6.6875Z"/>
</svg>
