<svg width="30" height="23" viewBox="0 0 30 23" fill="none" xmlns="http://www.w3.org/2000/svg">
<path d="M29.5999 12.8C29.4948 12.8788 29.3753 12.9361 29.2481 12.9687C29.1209 13.0013 28.9885 13.0085 28.8585 12.99C28.7285 12.9714 28.6034 12.9274 28.4904 12.8605C28.3774 12.7936 28.2787 12.7051 28.1999 12.6C27.5972 11.7898 26.8126 11.1325 25.9094 10.6809C25.0063 10.2293 24.0097 9.9961 22.9999 10C22.8032 10 22.611 9.94201 22.4471 9.83329C22.2833 9.72457 22.1551 9.56995 22.0786 9.38877C22.0267 9.26574 22 9.13356 22 9.00002C22 8.86648 22.0267 8.7343 22.0786 8.61127C22.1551 8.43009 22.2833 8.27547 22.4471 8.16675C22.611 8.05803 22.8032 8.00004 22.9999 8.00002C23.561 7.99997 24.1108 7.84257 24.5869 7.5457C25.063 7.24882 25.4464 6.82438 25.6934 6.32057C25.9403 5.81676 26.0411 5.25379 25.9841 4.6956C25.9272 4.1374 25.7149 3.60636 25.3713 3.1628C25.0276 2.71923 24.5665 2.38092 24.0403 2.18629C23.514 1.99166 22.9437 1.94851 22.3942 2.06175C21.8446 2.17499 21.3379 2.44007 20.9314 2.82688C20.525 3.2137 20.2352 3.70675 20.0949 4.25002C20.0621 4.37724 20.0045 4.49674 19.9255 4.60171C19.8465 4.70668 19.7475 4.79506 19.6344 4.86181C19.5212 4.92855 19.396 4.97235 19.2659 4.9907C19.1358 5.00905 19.0034 5.0016 18.8761 4.96877C18.7489 4.93594 18.6294 4.87837 18.5244 4.79936C18.4195 4.72034 18.3311 4.62142 18.2644 4.50825C18.1976 4.39508 18.1538 4.26987 18.1355 4.13977C18.1171 4.00968 18.1246 3.87724 18.1574 3.75002C18.3521 2.99666 18.7199 2.29914 19.2316 1.71296C19.7433 1.12678 20.3848 0.66811 21.1049 0.373458C21.8251 0.0788045 22.6041 -0.0437029 23.3799 0.0156828C24.1558 0.0750684 24.9071 0.314708 25.574 0.715534C26.2409 1.11636 26.8051 1.66731 27.2216 2.32454C27.6381 2.98178 27.8955 3.72715 27.9733 4.50137C28.0511 5.27558 27.9471 6.05726 27.6696 6.78421C27.3921 7.51115 26.9488 8.16331 26.3749 8.68877C27.7347 9.27752 28.9167 10.2118 29.8036 11.3988C29.8824 11.5041 29.9397 11.6239 29.9721 11.7514C30.0045 11.8789 30.0114 12.0115 29.9925 12.1417C29.9736 12.2718 29.9291 12.397 29.8618 12.51C29.7944 12.6229 29.7054 12.7215 29.5999 12.8ZM22.8649 20.5C22.9372 20.6138 22.9858 20.7411 23.0077 20.8742C23.0296 21.0073 23.0243 21.1434 22.9923 21.2744C22.9602 21.4054 22.9019 21.5286 22.821 21.6365C22.7401 21.7444 22.6382 21.8348 22.5214 21.9023C22.4047 21.9698 22.2754 22.0129 22.1416 22.0292C22.0077 22.0455 21.8719 22.0345 21.7424 21.9969C21.6128 21.9593 21.4922 21.8959 21.3878 21.8105C21.2834 21.7251 21.1974 21.6195 21.1349 21.5C20.5049 20.4334 19.6078 19.5494 18.5319 18.9353C17.4561 18.3212 16.2387 17.9982 14.9999 17.9982C13.7611 17.9982 12.5437 18.3212 11.4679 18.9353C10.392 19.5494 9.49483 20.4334 8.86489 21.5C8.80238 21.6195 8.71633 21.7251 8.61194 21.8105C8.50755 21.8959 8.38696 21.9593 8.25743 21.9969C8.1279 22.0345 7.99211 22.0455 7.85822 22.0292C7.72434 22.0129 7.59513 21.9698 7.47836 21.9023C7.3616 21.8348 7.25969 21.7444 7.17878 21.6365C7.09786 21.5286 7.03961 21.4054 7.00752 21.2744C6.97543 21.1434 6.97018 21.0073 6.99206 20.8742C7.01395 20.7411 7.06254 20.6138 7.13489 20.5C8.10439 18.8342 9.58263 17.5234 11.3524 16.76C10.3566 15.9976 9.62468 14.9422 9.25964 13.7423C8.89461 12.5424 8.91477 11.2583 9.31728 10.0704C9.7198 8.88254 10.4844 7.85068 11.5037 7.11986C12.523 6.38905 13.7457 5.99601 14.9999 5.99601C16.2541 5.99601 17.4768 6.38905 18.4961 7.11986C19.5153 7.85068 20.28 8.88254 20.6825 10.0704C21.085 11.2583 21.1052 12.5424 20.7401 13.7423C20.3751 14.9422 19.6432 15.9976 18.6474 16.76C20.4171 17.5234 21.8954 18.8342 22.8649 20.5ZM14.9999 16C15.791 16 16.5644 15.7654 17.2222 15.3259C17.88 14.8864 18.3927 14.2617 18.6954 13.5308C18.9982 12.7998 19.0774 11.9956 18.923 11.2197C18.7687 10.4437 18.3877 9.731 17.8283 9.17159C17.2689 8.61218 16.5562 8.23122 15.7803 8.07688C15.0043 7.92254 14.2001 8.00175 13.4692 8.3045C12.7383 8.60725 12.1135 9.11994 11.674 9.77774C11.2345 10.4355 10.9999 11.2089 10.9999 12C10.9999 13.0609 11.4213 14.0783 12.1715 14.8284C12.9216 15.5786 13.939 16 14.9999 16ZM7.99989 9.00002C7.99989 8.7348 7.89453 8.48045 7.707 8.29291C7.51946 8.10538 7.26511 8.00002 6.99989 8.00002C6.4388 7.99997 5.88897 7.84257 5.41285 7.5457C4.93673 7.24882 4.55341 6.82438 4.30643 6.32057C4.05945 5.81676 3.9587 5.25379 4.01564 4.6956C4.07258 4.1374 4.28491 3.60636 4.62853 3.1628C4.97214 2.71923 5.43326 2.38092 5.95952 2.18629C6.48577 1.99166 7.05605 1.94851 7.6056 2.06175C8.15514 2.17499 8.66192 2.44007 9.06836 2.82688C9.4748 3.2137 9.76462 3.70675 9.90489 4.25002C9.9712 4.50695 10.1368 4.72701 10.3654 4.86181C10.594 4.9966 10.8667 5.03507 11.1236 4.96877C11.3806 4.90247 11.6006 4.73681 11.7354 4.50825C11.8702 4.27969 11.9087 4.00695 11.8424 3.75002C11.6477 2.99666 11.2799 2.29914 10.7682 1.71296C10.2564 1.12678 9.615 0.66811 8.89483 0.373458C8.17467 0.0788045 7.39568 -0.0437029 6.61984 0.0156828C5.844 0.0750684 5.09273 0.314708 4.4258 0.715534C3.75887 1.11636 3.1947 1.66731 2.77817 2.32454C2.36164 2.98178 2.10425 3.72715 2.02648 4.50137C1.94871 5.27558 2.05271 6.05726 2.3302 6.78421C2.60769 7.51115 3.05101 8.16331 3.62489 8.68877C2.26649 9.27807 1.08578 10.2123 0.199891 11.3988C0.0405954 11.6109 -0.0278906 11.8777 0.00949948 12.1404C0.0468895 12.403 0.187093 12.6401 0.399266 12.7994C0.611439 12.9587 0.878202 13.0272 1.14087 12.9898C1.40354 12.9524 1.6406 12.8122 1.79989 12.6C2.40262 11.7898 3.18716 11.1325 4.09034 10.6809C4.99352 10.2293 5.99011 9.9961 6.99989 10C7.26511 10 7.51946 9.89466 7.707 9.70713C7.89453 9.51959 7.99989 9.26524 7.99989 9.00002Z" fill="black"/>
</svg>
