<svg width="24" height="25" viewBox="0 0 24 25" fill="none" xmlns="http://www.w3.org/2000/svg">
<path d="M15 23V17C15 16.7348 14.8946 16.4804 14.7071 16.2929C14.5196 16.1053 14.2652 16 14 16H10C9.73478 16 9.48043 16.1053 9.29289 16.2929C9.10536 16.4804 9 16.7348 9 17V23C9 23.2652 8.89464 23.5196 8.70711 23.7071C8.51957 23.8946 8.26522 24 8 24H2C1.73478 24 1.48043 23.8946 1.29289 23.7071C1.10536 23.5196 1 23.2652 1 23V12.5V12.5C1.00009 11.5527 1.43642 10.6576 2.08477 9.96687C2.31022 9.7267 2.4943 9.53243 2.53 9.49998C2.53 9.49998 9.90337 2.66758 10.0875 2.49998V2.49998C11.1471 1.53552 12.8541 1.53552 13.9138 2.49998V2.49998C14.0823 2.65339 20.2988 8.39122 21.3498 9.36135C21.4524 9.45605 21.5473 9.55141 21.6419 9.65414V9.65414C22.4645 10.5478 22.9447 11.7034 22.9976 12.9168L23.0012 13V23C23.0012 23.2652 22.8959 23.5196 22.7084 23.7071C22.5208 23.8946 22.2665 24 22.0012 24H16C15.7348 24 15.4804 23.8946 15.2929 23.7071C15.1054 23.5196 15 23.2652 15 23Z" stroke-width="2" stroke-linecap="round" stroke-linejoin="round"/>
</svg>
