<svg viewBox="0 0 20 20" fill="none" xmlns="http://www.w3.org/2000/svg">
<path d="M10 0C15.5234 0 20 4.47656 20 10C20 15.5234 15.5234 20 10 20C4.47656 20 0 15.5234 0 10C0 4.47656 4.47656 0 10 0ZM10 18.125C10.2891 18.125 11.0195 17.8438 11.8594 16.2344C12.2031 15.543 12.4648 14.7031 12.7188 13.75H7.28125C7.5 14.7031 7.79688 15.543 8.14062 16.2344C8.94531 17.8438 9.71094 18.125 10 18.125ZM6.97266 11.875H13.0273C13.0898 11.2773 13.125 10.6484 13.125 10C13.125 9.35156 13.0898 8.72266 13.0273 8.125H6.97266C6.91016 8.72266 6.875 9.35156 6.875 10C6.875 10.6484 6.91016 11.2773 6.97266 11.875ZM12.7188 6.25C12.4648 5.29688 12.2031 4.45703 11.8594 3.76758C11.0195 2.15703 10.2891 1.875 10 1.875C9.71094 1.875 8.94531 2.15703 8.14062 3.76758C7.79688 4.45703 7.5 5.29688 7.28125 6.25H12.7188ZM14.9141 8.125C14.9688 8.73047 15 9.35938 15 10C15 10.6406 14.9688 11.2695 14.9141 11.875H17.9062C18.0508 11.2734 18.125 10.6445 18.125 10C18.125 9.35547 18.0508 8.72656 17.9062 8.125H14.9141ZM13.3633 2.60195C13.9141 3.60391 14.3516 4.84766 14.6367 6.25H17.2109C16.375 4.64453 15.0156 3.35469 13.3633 2.60195ZM6.63672 2.60195C4.98438 3.35469 3.62656 4.64453 2.79023 6.25H5.36328C5.64844 4.84766 6.08594 3.60391 6.63672 2.60195ZM1.875 10C1.875 10.6445 1.95039 11.2734 2.09258 11.875H5.08594C5.03125 11.2695 5 10.6406 5 10C5 9.35938 5.03125 8.73047 5.08594 8.125H2.09258C1.95039 8.72656 1.875 9.35547 1.875 10ZM17.2109 13.75H14.6367C14.3516 15.1523 13.9141 16.3945 13.3633 17.3984C15.0156 16.6445 16.375 15.3555 17.2109 13.75ZM5.36328 13.75H2.79023C3.62656 15.3555 4.98438 16.6445 6.63672 17.3984C6.08594 16.3945 5.64844 15.1523 5.36328 13.75Z" />
</svg>
