<svg version="1.1" id="Layer_1" xmlns="http://www.w3.org/2000/svg" x="0px" y="0px" viewBox="0 0 1000 1000">
    <rect width="1000" height="1000" rx="100" ry="100" fill="#4CBD95"/>
    <path transform="scale(3) translate(40, 40)" fill="#ffffff" d="M200,204.5V232a8,8,0,0,1-16,0V204.5a63.67,63.67,0,0,0-35.38-57.25l-48.4-24.19A79.58,79.58,0,0,1,56,51.5V24a8,8,0,0,1,16,0V51.5a63.67,63.67,0,0,0,35.38,57.25l48.4,24.19A79.58,79.58,0,0,1,200,204.5ZM160,200H72.17a63.59,63.59,0,0,1,3.23-16h72.71a8,8,0,0,0,0-16H83.46a63.71,63.71,0,0,1,14.65-15.08A8,8,0,1,0,88.64,140,80.27,80.27,0,0,0,56,204.5V232a8,8,0,0,0,16,0V216h88a8,8,0,0,0,0-16ZM192,16a8,8,0,0,0-8,8V40H96a8,8,0,0,0,0,16h87.83a63.59,63.59,0,0,1-3.23,16H107.89a8,8,0,1,0,0,16h64.65a63.71,63.71,0,0,1-14.65,15.08,8,8,0,0,0,9.47,12.9A80.27,80.27,0,0,0,200,51.5V24A8,8,0,0,0,192,16Z"></path>
</svg>