<svg viewBox="0 0 36 22" fill="none" xmlns="http://www.w3.org/2000/svg">
    <path fill-rule="evenodd" clip-rule="evenodd" d="M11.138 2.58383e-07H20.6981C24.0405 2.58383e-07 26.75 2.69078 26.75 6.01004C26.75 6.5562 26.3041 6.99896 25.7542 6.99896C25.2041 6.99896 24.7583 6.5562 24.7583 6.01004C24.7583 3.78313 22.9405 1.97786 20.6981 1.97786H11.1992C9.11606 1.97786 7.63645 1.97931 6.49663 2.10597C5.37659 2.23043 4.70758 2.46543 4.19706 2.85045C3.88526 3.08561 3.60715 3.36179 3.37036 3.67143C2.98263 4.17842 2.746 4.8428 2.62067 5.95507C2.49312 7.08699 2.49167 8.55635 2.49167 10.625C2.49167 12.6937 2.49312 14.163 2.62067 15.2949C2.746 16.4073 2.98265 17.0716 3.37036 17.5785C3.60715 17.8882 3.88526 18.1644 4.19706 18.3996C4.70758 18.7846 5.37659 19.0195 6.49663 19.144C7.63645 19.2707 9.11606 19.2722 11.1992 19.2722H20.6981C22.9405 19.2722 24.7583 17.467 24.7583 15.2401C24.7583 14.6938 25.2041 14.2512 25.7542 14.2512C26.3041 14.2512 26.75 14.6938 26.75 15.2401C26.75 18.5592 24.0405 21.25 20.6981 21.25H11.138C9.12974 21.25 7.53865 21.25 6.27514 21.1096C4.97906 20.9656 3.906 20.6636 2.9925 19.9747C2.5368 19.631 2.13032 19.2274 1.78424 18.7748C1.09049 17.8677 0.786394 16.802 0.64136 15.5149C0.499975 14.2602 0.499986 12.6801 0.5 10.6858V10.5643C0.499986 8.56992 0.499975 6.98985 0.64136 5.73512C0.786394 4.44802 1.09049 3.38238 1.78424 2.47522C2.13032 2.02267 2.5368 1.61901 2.9925 1.27533C3.906 0.586395 4.97906 0.284405 6.27514 0.14037C7.53865 -2.64601e-05 9.12974 -1.30229e-05 11.138 2.58383e-07Z" />
    <path fill-rule="evenodd" clip-rule="evenodd" d="M14.2598 6.26693C12.5931 5.29472 10.5001 6.4969 10.5001 8.42637V12.8238C10.5001 14.7533 12.5931 15.9554 14.2598 14.9832L18.029 12.7845C19.6827 11.8198 19.6827 9.43032 18.029 8.46563L14.2598 6.26693ZM13.0001 8.42637L16.7693 10.6251L13.0001 12.8238L13.0001 8.42637Z"/>
    <path fill-rule="evenodd" clip-rule="evenodd" d="M29.875 5C30.5654 5 31.125 5.55964 31.125 6.25V9.375H34.25C34.9404 9.375 35.5 9.93464 35.5 10.625C35.5 11.3154 34.9404 11.875 34.25 11.875H31.125V15C31.125 15.6904 30.5654 16.25 29.875 16.25C29.1846 16.25 28.625 15.6904 28.625 15V11.875H25.5C24.8096 11.875 24.25 11.3154 24.25 10.625C24.25 9.93464 24.8096 9.375 25.5 9.375H28.625V6.25C28.625 5.55964 29.1846 5 29.875 5Z" />
    </svg>
    