<svg width="161" height="48" viewBox="0 0 161 48" fill="none" xmlns="http://www.w3.org/2000/svg">
<path d="M87.597 14.7305C87.4823 13.1689 87.2805 11.6149 86.9927 10.0756C86.9076 9.62822 86.8102 9.08011 86.6764 8.28615C86.5426 7.4922 86.429 6.89169 86.3398 6.46852C86.2506 6.04534 86.1573 5.66247 86.064 5.3199C85.9954 4.95002 85.8241 4.60658 85.5693 4.32847C85.382 4.15073 85.1597 4.0135 84.9163 3.92545C84.6539 3.84452 84.38 3.80641 84.1053 3.8126C83.7889 3.8126 82.8237 3.8126 82.4182 4.51386C82.26 4.78388 82.1181 5.24333 82.1181 6.7587C82.1081 7.09286 82.127 7.42727 82.1749 7.75819L82.2317 8.20958C82.3055 8.91793 82.4261 9.6207 82.5926 10.3134C82.6057 10.3614 82.622 10.4085 82.6413 10.4544C82.6504 10.6382 82.6707 10.8212 82.7021 11.0025C82.743 11.3412 82.8191 11.6748 82.9292 11.998C83.0051 12.2299 83.0461 12.4716 83.0509 12.7154C83.2455 14.9118 83.1928 15.4882 83.1725 15.6494C83.1107 15.6735 83.0441 15.6831 82.9779 15.6776C82.4101 15.6776 76.8704 17.2897 75.4307 18.2408C74.119 19.0299 73.0328 20.14 72.2756 21.465C71.5862 22.7627 71.3753 30.1542 71.3753 30.2267C71.3388 31.9275 71.6349 32.9753 72.2959 33.5073L72.4257 33.6484C73.6685 35.0343 75.377 35.9227 77.2313 36.1471C79.1773 36.4047 81.1414 36.5031 83.1036 36.4413C83.8295 36.4413 84.5149 36.4413 85.1556 36.4413H85.2773L88.2621 35.4741L88.1647 29.8317C88.1485 27.2242 87.9579 18.7688 87.597 14.7305ZM84.0282 29.8882C83.9836 30.2428 83.9471 30.5129 83.9187 30.6942C83.8955 30.8322 83.8574 30.9673 83.8052 31.0972C83.7768 31.1658 83.7524 31.2141 83.7484 31.2302L83.6511 31.2705C83.5464 31.3062 83.4371 31.3265 83.3266 31.331C83.1563 31.331 82.9211 31.331 82.5804 31.331C81.2235 31.287 79.8756 31.0937 78.5615 30.7547C77.7447 30.5965 76.9459 30.3575 76.1769 30.0413C75.8525 29.2836 76.6717 23.593 78.9022 21.9446C81.1326 20.2962 82.256 20.1149 82.8156 20.2882C82.9697 20.3365 83.4402 20.4816 83.7605 21.4972C83.8417 21.9003 83.9268 24.5602 83.9714 25.9909C84.0039 26.9864 84.0282 27.8086 84.0485 28.0625C84.1043 28.6701 84.0975 29.2819 84.0282 29.8882Z" fill="black"/>
<path d="M101.86 13.8801C101.403 14.2613 101.058 14.7566 100.858 15.3149V15.3391C100.57 16.1566 100.217 16.9503 99.8038 17.7129C99.4702 18.305 99.2787 18.9656 99.2441 19.6434C99.2264 19.8181 99.1826 19.9892 99.1144 20.1512C99.0596 20.3168 98.9847 20.4752 98.8913 20.6227L98.7129 20.5098C98.3581 20.2497 98.0195 19.9685 97.699 19.6675C97.2935 19.2645 96.746 18.7446 96.0769 18.0554C93.2097 15.1577 91.5023 14.126 90.3709 14.5814C89.7261 14.8433 89.3976 15.5124 89.3976 16.5723C89.3976 17.2292 89.7423 18.0595 90.456 19.0993C91.4086 20.4198 92.4434 21.6797 93.5544 22.8716C95.6673 25.2494 97.0948 25.9104 97.7558 26.1884C97.7675 26.7831 97.7172 27.3774 97.6057 27.9617C97.3912 28.656 97.1353 29.337 96.8393 30.001C96.4312 30.8306 96.0921 31.6919 95.8254 32.5763C95.5798 33.2906 95.4351 34.0352 95.3955 34.7889C95.3955 35.6393 95.5172 36.1632 95.8011 36.4897C95.9311 36.6345 96.0924 36.7481 96.2729 36.8221C96.4534 36.896 96.6484 36.9285 96.8433 36.9169C97.0083 36.9164 97.1727 36.8988 97.334 36.8645C97.7662 36.8023 98.1805 36.6513 98.5507 36.4212C98.9135 36.2184 99.2115 35.9181 99.4104 35.5547C99.4834 35.4177 99.6456 35.0993 99.893 34.5995C100.14 34.0998 100.299 33.7612 100.396 33.5678C100.739 32.8706 101.001 32.1362 101.175 31.3794C101.458 30.3396 101.718 29.2353 101.937 28.1109C102.156 26.9864 102.521 25.6927 102.943 24.2136C103.364 22.7345 103.754 21.5013 104.098 20.5502C104.569 19.3129 104.91 18.3255 105.137 17.5275C105.349 16.8465 105.469 16.1403 105.494 15.4277C105.515 15.1455 105.478 14.8619 105.384 14.5948C105.29 14.3277 105.14 14.0829 104.946 13.8761C104.224 13.2433 102.712 13.2433 101.86 13.8801Z" fill="black"/>
<path d="M120.324 14.13C120.177 13.9733 119.995 13.8532 119.793 13.7793C119.613 13.702 119.423 13.6491 119.229 13.6222C119.095 13.6222 118.876 13.5899 118.576 13.5738C118.276 13.5577 118.013 13.5496 117.765 13.5415C117.518 13.5335 117.133 13.5415 116.65 13.5415C114.217 13.5415 112.522 13.8761 111.443 14.5693C110.142 15.3264 109.121 16.4794 108.531 17.8579C107.959 19.1879 107.667 20.9773 107.667 23.1657L107.619 27.47L112.079 28.9209C113.503 29.3844 114.257 29.6745 114.655 29.8478C114.313 29.9766 113.96 30.0751 113.6 30.1421C112.902 30.2941 112.19 30.3711 111.475 30.3718C110.816 30.358 110.156 30.3862 109.5 30.4564C109.051 30.4725 108.62 30.6402 108.28 30.932C108.136 31.0922 108.027 31.2791 107.957 31.4818C107.888 31.6846 107.859 31.8991 107.874 32.1128C107.876 32.4529 107.958 32.7878 108.115 33.0903C108.271 33.3928 108.497 33.6544 108.774 33.8539C109.367 34.2786 110.054 34.5551 110.778 34.6599C111.411 34.7705 112.053 34.8244 112.696 34.8211H113.183C114.076 34.7819 114.961 34.6275 115.815 34.3617C116.659 34.1115 117.458 33.7307 118.183 33.2332C118.795 32.8162 119.314 32.2784 119.708 31.6534C120.023 31.0295 120.171 30.3355 120.138 29.6383C120.171 29.0791 120.073 28.5199 119.852 28.0046C119.631 27.4892 119.293 27.0318 118.864 26.668C118.106 26.0635 116.703 25.4589 114.582 24.8786C112.335 24.2055 111.942 23.875 111.865 23.7864C111.787 23.6977 111.581 23.2665 112.14 21.9123C112.621 20.7576 113.329 19.7105 114.225 18.8332C115.259 17.8096 115.758 17.5154 115.961 17.4307C116.163 17.3461 116.634 17.2453 117.717 17.3985C118.122 17.4589 118.434 17.4992 118.637 17.5194C118.875 17.5414 119.113 17.5414 119.351 17.5194C119.576 17.5107 119.797 17.4601 120.004 17.3703C120.226 17.2514 120.403 17.063 120.507 16.8342C120.607 16.6359 120.665 16.4191 120.677 16.1975C120.677 16.0564 120.677 15.8468 120.677 15.5647V15.1738C120.676 14.981 120.64 14.7899 120.572 14.6096C120.52 14.4357 120.436 14.273 120.324 14.13Z" fill="black"/>
<path d="M138.602 16.8181C138.499 16.5461 138.362 16.2877 138.196 16.0483C138.002 15.7584 137.779 15.4883 137.531 15.2423L136.878 14.5652C136.248 13.8762 135.499 13.3032 134.668 12.8725C133.827 12.5649 132.932 12.4279 132.036 12.4695C130.409 12.4331 128.81 12.8885 127.449 13.7753C126.463 14.4172 125.573 15.1947 124.805 16.0846C124.159 16.8778 123.689 17.7981 123.427 18.7849C123.115 20.0525 122.939 21.3494 122.903 22.6539C122.672 26.8332 123.398 29.9325 125.057 31.875C126.59 33.6645 128.995 34.5713 132.231 34.5713C132.559 34.5713 132.896 34.5713 133.241 34.543L134.611 34.4423C134.942 34.4181 135.271 34.3751 135.597 34.3133C135.876 34.2761 136.149 34.2001 136.408 34.0876C136.621 33.9782 136.806 33.8209 136.947 33.6282C137.111 33.4251 137.215 33.181 137.247 32.9229C137.268 32.71 137.278 32.496 137.276 32.2821C137.276 31.7219 137.207 30.936 136.615 30.5854C136.343 30.4282 135.897 30.3113 134.473 30.4886C133.216 30.6155 131.948 30.3776 130.824 29.8035C129.731 29.3457 128.822 28.5425 128.236 27.5184L127.896 26.8816L130.264 26.6237C131.367 26.5432 132.456 26.3321 133.508 25.9949C134.452 25.6684 135.347 25.217 136.169 24.6529C136.736 24.2499 137.15 23.9476 137.414 23.7219C137.748 23.4327 138.023 23.0825 138.225 22.6902C138.437 22.3051 138.581 21.8865 138.651 21.4529C138.703 21.1022 138.756 20.5541 138.801 19.8085C138.833 19.3061 138.849 18.9031 138.849 18.5995C138.849 18.2801 138.829 17.9611 138.788 17.6443C138.752 17.3638 138.689 17.0873 138.602 16.8181ZM128.285 21.4045L127.604 20.7033L129.323 19.0468C129.836 18.5127 130.393 18.0232 130.99 17.5839C131.25 17.3977 131.521 17.2268 131.801 17.072C132.027 17.158 132.236 17.2836 132.417 17.4428C132.854 17.7739 133.253 18.1524 133.606 18.5713L134.636 19.7803L133.719 20.5864C133.292 20.9388 132.817 21.2292 132.308 21.4488C131.792 21.7018 131.248 21.8913 130.686 22.0131C130.199 22.1279 129.695 22.1471 129.201 22.0695C128.84 21.9354 128.523 21.7054 128.285 21.4045Z" fill="black"/>
<path d="M157.087 18.9017C157.055 18.628 156.997 18.358 156.912 18.0957C156.814 17.8202 156.678 17.5597 156.507 17.3219C156.337 17.0631 156.145 16.8203 155.931 16.5965L155.193 15.8267C154.559 15.1386 153.81 14.5657 152.978 14.134C152.138 13.828 151.245 13.691 150.35 13.731C148.723 13.6945 147.122 14.1499 145.76 15.0368C144.777 15.6763 143.889 16.448 143.12 17.33C142.476 18.1251 142.007 19.0447 141.741 20.0302C141.429 21.2976 141.255 22.5948 141.222 23.8992C140.991 28.0786 141.712 31.1818 143.375 33.1204C144.904 34.9098 147.313 35.8166 150.545 35.8166C150.874 35.8166 151.21 35.8166 151.555 35.7884L152.93 35.6876C153.261 35.6654 153.59 35.6224 153.915 35.5587C154.194 35.5214 154.467 35.4469 154.726 35.337C154.941 35.228 155.127 35.0706 155.27 34.8776C155.433 34.6729 155.537 34.4275 155.57 34.1682C155.591 33.9553 155.6 33.7414 155.598 33.5274C155.598 32.9672 155.529 32.1813 154.933 31.8307C154.661 31.6735 154.215 31.5567 152.796 31.734C151.538 31.8618 150.27 31.6238 149.146 31.0489C148.056 30.5898 147.148 29.7868 146.563 28.7637L146.218 28.131L148.59 27.869C149.693 27.7889 150.782 27.5778 151.835 27.2403C152.779 26.9146 153.674 26.4631 154.495 25.8982C155.063 25.4952 155.481 25.1929 155.74 24.9713C156.072 24.6802 156.347 24.3304 156.551 23.9395C156.754 23.5508 156.891 23.1314 156.957 22.6982C157.009 22.3476 157.062 21.7995 157.107 21.0539C157.139 20.5501 157.151 20.1511 157.151 19.8448C157.15 19.5294 157.128 19.2144 157.087 18.9017ZM146.599 22.666L145.918 21.9647L147.617 20.3083C148.137 19.7754 148.7 19.2861 149.3 18.8453C149.559 18.6592 149.83 18.4896 150.111 18.3375C150.337 18.4223 150.546 18.5465 150.728 18.7043C151.163 19.0354 151.561 19.4139 151.912 19.8327L152.946 21.0418L152.025 21.8478C151.598 22.197 151.124 22.4871 150.618 22.7103C150.102 22.9604 149.557 23.1485 148.996 23.2705C148.51 23.3877 148.005 23.4069 147.512 23.3269C147.152 23.1954 146.836 22.9665 146.599 22.666Z" fill="black"/>
<path d="M55.0117 16.6408C55.7266 16.4127 56.4681 16.2772 57.2179 16.2378C58.3297 16.1283 59.4463 16.0744 60.5636 16.0766C62.4129 16.0766 63.666 16.1411 64.327 16.3265C65.1714 16.6171 65.9363 17.0986 66.5616 17.733C67.198 18.3416 67.7054 19.0706 68.054 19.8771C68.4313 20.9326 68.6672 22.0329 68.7555 23.1496C69.0222 25.2006 68.9593 27.2806 68.569 29.3119C68.1824 31.2947 67.6011 32.5038 66.8252 32.9391C65.769 33.5611 64.7617 34.2617 63.812 35.0348C63.2225 35.537 62.5308 35.9068 61.7843 36.1189C60.8806 36.244 59.9631 36.2318 59.0631 36.0826C58.057 35.9321 57.0812 35.6247 56.1716 35.1718C55.1933 34.6019 54.3039 33.8932 53.5315 33.068C53.0205 32.5683 52.6555 32.2056 52.4366 31.9799C52.1743 31.7033 51.9393 31.4024 51.735 31.0811C51.5472 30.8136 51.3882 30.5272 51.2605 30.2267C51.155 29.8831 51.079 29.5312 51.0334 29.1748C50.96 28.7216 50.9207 28.2636 50.9158 27.8046V25.8539C50.9158 20.7436 52.2811 17.6726 55.0117 16.6408ZM63.1226 20.1834C61.8978 19.0281 61.1327 18.4504 60.8272 18.4504C60.1702 18.4504 59.3348 18.8534 58.3169 19.591C57.3564 20.2753 56.5234 21.1209 55.8553 22.0897C54.8279 23.5755 54.3656 24.9189 54.4683 26.1199C54.5711 27.3209 55.2605 28.6119 56.5366 29.993L58.6576 32.2781L61.2571 31.0973C62.6815 30.5259 63.883 29.5142 64.6839 28.2116C65.4106 27.0004 65.6578 25.5638 65.3774 24.1814C65.0618 22.6502 64.277 21.2536 63.1307 20.1834H63.1226Z" fill="black"/>
<path d="M24.3244 3.23627H24.3204C12.7812 3.23627 3.42688 12.5325 3.42688 24V24.004C3.42688 35.4715 12.7812 44.7678 24.3204 44.7678H24.3244C35.8636 44.7678 45.2179 35.4715 45.2179 24.004V24C45.2179 12.5325 35.8636 3.23627 24.3244 3.23627Z" fill="url(#paint0_linear_1_3307)"/>
<mask id="mask0_1_3307" style="mask-type:luminance" maskUnits="userSpaceOnUse" x="3" y="3" width="43" height="42">
<path d="M24.3244 3.23627H24.3204C12.7812 3.23627 3.42688 12.5325 3.42688 24V24.004C3.42688 35.4715 12.7812 44.7678 24.3204 44.7678H24.3244C35.8636 44.7678 45.2179 35.4715 45.2179 24.004V24C45.2179 12.5325 35.8636 3.23627 24.3244 3.23627Z" fill="white"/>
</mask>
<g mask="url(#mask0_1_3307)">
<path d="M6.94288 19.4136C6.98831 19.3893 7.02804 19.3558 7.05945 19.3151C7.09087 19.2744 7.11325 19.2276 7.12513 19.1777C7.13701 19.1278 7.13811 19.076 7.12837 19.0257C7.11862 18.9753 7.09825 18.9276 7.06859 18.8857C7.01086 18.8025 6.9238 18.7439 6.82465 18.7215C6.72551 18.6991 6.62151 18.7146 6.53328 18.7648C6.47925 18.8298 6.44712 18.9101 6.44143 18.9943C6.43574 19.0784 6.45677 19.1623 6.50156 19.2339C6.54635 19.3056 6.61264 19.3615 6.69109 19.3937C6.76953 19.426 6.85618 19.4329 6.93882 19.4136H6.94288ZM29.7019 9.26954C29.7486 9.24597 29.7895 9.21245 29.8217 9.17138C29.854 9.13031 29.8767 9.0827 29.8883 9.03192C29.8999 8.98113 29.9001 8.92843 29.8889 8.87756C29.8777 8.82668 29.8554 8.77888 29.8235 8.73755C29.7659 8.65542 29.6796 8.59754 29.5814 8.57519C29.4832 8.55284 29.3801 8.56762 29.2923 8.61665C29.2096 8.67391 29.1514 8.75969 29.1289 8.85729C29.1064 8.95489 29.1213 9.05731 29.1706 9.14461C29.2276 9.22742 29.3137 9.28611 29.4119 9.30922C29.5102 9.33232 29.6136 9.31818 29.7019 9.26954ZM34.54 23.9396C34.5201 24.024 34.5257 24.1124 34.5563 24.1936C34.5868 24.2748 34.6408 24.3453 34.7116 24.396C34.7823 24.4468 34.8666 24.4756 34.9538 24.4788C35.041 24.4821 35.1272 24.4596 35.2015 24.4143C35.2759 24.3689 35.3351 24.3027 35.3717 24.224C35.4082 24.1453 35.4206 24.0576 35.4071 23.9719C35.3936 23.8862 35.3549 23.8064 35.2958 23.7426C35.2368 23.6788 35.16 23.6337 35.0753 23.6131C34.961 23.5896 34.842 23.6102 34.7425 23.6709C34.643 23.7315 34.5706 23.8276 34.54 23.9396ZM28.1446 38.7708C27.9783 38.6902 27.8161 38.8111 27.739 39.0166C27.7232 39.081 27.727 39.1485 27.7498 39.2107C27.7726 39.2729 27.8135 39.327 27.8673 39.3661C27.9211 39.4052 27.9854 39.4275 28.0519 39.4303C28.1185 39.4331 28.1844 39.4161 28.2413 39.3816C28.2982 39.3472 28.3435 39.2967 28.3715 39.2366C28.3995 39.1765 28.4089 39.1095 28.3985 39.0441C28.3882 38.9787 28.3585 38.9178 28.3133 38.8691C28.2681 38.8205 28.2094 38.7863 28.1446 38.7708ZM9.53429 11.3653C9.56114 11.3711 9.58891 11.3716 9.61597 11.3667C9.64302 11.3618 9.66882 11.3516 9.69185 11.3367C9.71488 11.3217 9.73468 11.3024 9.7501 11.2797C9.76552 11.2571 9.77623 11.2317 9.78163 11.2049C9.78702 11.1781 9.78698 11.1504 9.78151 11.1237C9.77604 11.0969 9.76525 11.0714 9.74977 11.0489C9.73429 11.0263 9.71444 11.007 9.69136 10.9921C9.66829 10.9772 9.64246 10.9671 9.61539 10.9622C9.49373 10.9622 9.36801 11.0025 9.36801 11.1234C9.35921 11.1501 9.35675 11.1785 9.36083 11.2062C9.36491 11.234 9.37543 11.2605 9.39154 11.2835C9.40766 11.3066 9.42894 11.3256 9.45371 11.3391C9.47848 11.3525 9.50606 11.3601 9.53429 11.3612V11.3653ZM10.8401 31.5648C10.6739 31.6051 10.5522 31.726 10.5928 31.8912C10.5971 31.929 10.6093 31.9656 10.6284 31.9986C10.6476 32.0316 10.6734 32.0603 10.7042 32.083C10.735 32.1056 10.7701 32.1218 10.8075 32.1304C10.8448 32.139 10.8835 32.1399 10.9212 32.133C11.0835 32.133 11.1686 31.9718 11.1686 31.8066C11.1648 31.7684 11.153 31.7314 11.134 31.6979C11.1151 31.6645 11.0894 31.6353 11.0585 31.6122C11.0277 31.5891 10.9923 31.5726 10.9547 31.5637C10.9172 31.5549 10.8781 31.5539 10.8401 31.5607V31.5648ZM38.1209 17.733L37.8735 18.793L36.9043 19.2524L37.9668 19.4983L38.421 20.4333L38.6643 19.3733L39.6255 18.9421L38.5589 18.6962L38.1209 17.733ZM24.0446 9.0237C23.9415 8.8002 23.8048 8.59363 23.639 8.41111C23.5556 8.33318 23.4453 8.2898 23.3308 8.2898C23.2163 8.2898 23.1061 8.33318 23.0226 8.41111C22.9423 8.49311 22.8974 8.603 22.8974 8.7174C22.8974 8.8318 22.9423 8.94169 23.0226 9.0237C23.122 9.14702 23.2051 9.28245 23.27 9.42672C23.3277 9.53086 23.4226 9.60972 23.536 9.64776C23.6493 9.68581 23.7729 9.68028 23.8823 9.63226C23.9815 9.56976 24.0533 9.47237 24.0834 9.35955C24.1135 9.24674 24.0996 9.1268 24.0446 9.0237ZM24.2473 10.7768C24.1907 10.794 24.1385 10.8233 24.0944 10.8626C24.0504 10.902 24.0155 10.9504 23.9923 11.0046C23.9691 11.0587 23.9582 11.1173 23.9602 11.1761C23.9622 11.235 23.9772 11.2926 24.004 11.3451C24.1804 11.723 24.2233 12.149 24.1257 12.5542C24.1055 12.6727 24.1328 12.7943 24.2018 12.893C24.2708 12.9917 24.3759 13.0596 24.4947 13.0821H24.5758C24.6773 13.0825 24.7753 13.0451 24.8504 12.9772C24.9255 12.9093 24.9722 12.8159 24.9814 12.7154C25.1342 12.1448 25.0766 11.5387 24.8191 11.0066C24.8006 10.9513 24.7701 10.9007 24.73 10.8583C24.6898 10.8158 24.6409 10.7826 24.5865 10.7607C24.5322 10.7389 24.4737 10.729 24.4151 10.7318C24.3566 10.7346 24.2993 10.75 24.2473 10.7768ZM39.6052 37.5376C38.9854 34.9959 38.1719 32.5047 37.1719 30.0857C36.3325 27.9819 33.5991 25.3904 31.835 24.1008C31.6864 23.9905 31.5636 23.8495 31.4752 23.6875C31.3868 23.5255 31.3348 23.3463 31.3229 23.1624C31.3109 22.9784 31.3393 22.7941 31.406 22.6221C31.4727 22.4502 31.5762 22.2946 31.7093 22.1663C33.4328 20.5139 36.4987 17.33 37.4923 15.6655C38.1412 14.4887 39.4186 12.2559 39.4754 10.3214C39.6011 8.88264 39.4024 7.21816 37.4842 6.45645C37.014 6.24739 36.4948 6.17139 35.9839 6.23681C35.473 6.30223 34.9902 6.50654 34.5886 6.82723C33.372 7.65745 32.9665 9.9305 32.127 12.1955C31.1375 14.8071 29.5802 15.1376 28.757 15.1376C27.9337 15.1376 28.4731 14.2751 26.5873 8.85443C24.7015 3.43378 19.6931 4.42118 15.9256 6.66199C11.1281 9.51136 13.2572 15.5849 14.4495 19.4983C13.7884 20.1512 11.2497 20.6388 8.95436 21.86C7.52686 22.6217 6.30618 23.1134 5.11388 24.0645C3.45522 25.3904 2.73741 26.8857 3.31328 28.925C3.56269 29.6414 4.08359 30.2328 4.76512 30.5733C6.11963 31.1859 8.11489 30.2952 11.1686 28.0141C12.6666 27.0485 14.2958 26.3008 16.0067 25.7935C16.0067 25.7935 17.8519 28.6146 19.5755 31.9476C21.299 35.2806 17.7262 36.3809 17.3572 36.3809C16.9881 36.3809 11.3552 35.8368 12.6448 40.5643C13.9344 45.2917 20.7232 43.5789 24.2068 41.2978C27.6904 39.0167 26.8306 31.5607 26.8306 31.5607C30.2331 31.0328 31.2997 34.6156 31.6322 36.4494C31.9648 38.2831 31.2267 41.463 34.6657 41.5436C35.1514 41.5397 35.6343 41.4706 36.1013 41.3381C37.9587 40.9109 39.0334 39.9839 39.4754 38.9965C39.6737 38.5363 39.7192 38.0252 39.6052 37.5376ZM22.4427 15.3713C18.9591 16.6771 17.2761 14.9683 17.0733 11.8287C16.8259 8.28214 20.1473 7.39549 20.1473 7.39549C23.8377 6.18642 24.8232 7.92345 25.683 10.531C26.5427 13.1386 25.8898 14.0776 22.4427 15.3794V15.3713Z" fill="white"/>
</g>
<defs>
<linearGradient id="paint0_linear_1_3307" x1="18.4928" y1="3.95768" x2="35.6353" y2="63.6378" gradientUnits="userSpaceOnUse">
<stop stop-color="#EF1970"/>
<stop offset="0.14" stop-color="#F23B5C"/>
<stop offset="0.45" stop-color="#F77D35"/>
<stop offset="0.7" stop-color="#FCAD18"/>
<stop offset="0.89" stop-color="#FECB07"/>
<stop offset="1" stop-color="#FFD600"/>
</linearGradient>
</defs>
</svg>
