<svg clip-rule="evenodd" fill-rule="evenodd" stroke-linejoin="round" stroke-miterlimit="2" viewBox="0 0 24 24" xmlns="http://www.w3.org/2000/svg"><path d="m22 5c0-.478-.379-1-1-1h-18c-.62 0-1 .519-1 1v14c0 .621.52 1 1 1h18c.478 0 1-.379 1-1zm-5 13.5v-10.5c0-.478-.379-1-1-1h-12.5v-1.5h17v13zm-6.518-4.943-3.202 3.202c-.293.292-.768.292-1.06 0-.293-.293-.293-.768 0-1.061l3.198-3.198h-1.219c-.414 0-.75-.336-.75-.75s.336-.75.75-.75h3.033c.415 0 .75.336.75.75v3.05c0 .414-.335.75-.75.75-.414 0-.75-.336-.75-.75z" fill-rule="nonzero"/></svg>