<svg width="53" height="105" viewBox="0 0 53 105" fill="none" xmlns="http://www.w3.org/2000/svg">
<path fill-rule="evenodd" clip-rule="evenodd" d="M40.9617 0.617615C41.0563 0.573462 41.7411 0.253904 42.6452 0.253906C43.5132 0.253908 44.1717 0.547425 44.2781 0.594849C44.2825 0.596833 44.286 0.598389 44.2885 0.599472C44.5056 0.693774 44.6785 0.790154 44.7742 0.845379C44.9754 0.961456 45.1604 1.08556 45.2925 1.17675C45.5722 1.3698 45.8973 1.61228 46.2193 1.85867C46.8759 2.36123 47.6931 3.01368 48.4727 3.64468C49.2583 4.28043 50.0299 4.91408 50.6035 5.38745C50.8908 5.6245 51.1294 5.82218 51.2965 5.96087L51.561 6.18065C51.561 6.18065 51.5614 6.18103 49.0918 9.1446L51.561 6.18065C53.2581 7.59491 53.4878 10.1175 52.0736 11.8146C50.7153 13.4446 48.335 13.7206 46.6452 12.487V14.9771C46.6452 18.588 44.6985 21.9201 41.5508 23.6921L26.8416 31.9726L8.73503 41.5638C8.40774 41.7372 8.20308 42.0772 8.20312 42.4476L8.20383 48.2461C8.2041 50.4552 6.41346 52.2463 4.20432 52.2466C1.99518 52.2469 0.204104 50.4562 0.203835 48.2471L0.203125 42.4486C0.202718 39.1152 2.04471 36.0547 4.99031 34.4944L23.0064 24.9511L37.6263 16.7208C38.2552 16.3668 38.6452 15.7001 38.6452 14.9771V12.5901L38.6441 12.5911C36.9594 14.02 34.4351 13.8128 33.0061 12.128C31.5772 10.4433 31.7845 7.9191 33.4693 6.49014L35.9275 9.38836C33.4693 6.49014 33.4693 6.49014 33.4693 6.49014L33.7439 6.2578C33.9174 6.11131 34.165 5.90248 34.463 5.65206C35.0583 5.15192 35.8586 4.48262 36.6727 3.81126C37.4812 3.14459 38.3262 2.45683 39.0031 1.92799C39.3352 1.66847 39.6674 1.41536 39.9508 1.21498C40.0847 1.12031 40.2699 0.993033 40.4697 0.874344C40.5643 0.818142 40.7366 0.719086 40.953 0.621666C40.9548 0.620826 40.9578 0.619459 40.9617 0.617615ZM51.3061 46.3799C52.4208 48.2872 51.7782 50.737 49.8709 51.8516L11.2714 74.4098C9.36407 75.5245 6.91428 74.8819 5.79961 72.9746C4.68495 71.0673 5.32752 68.6175 7.23483 67.5029L45.8344 44.9446C47.7417 43.83 50.1915 44.4725 51.3061 46.3799ZM47.633 66.5855C49.8422 66.5852 51.6332 68.3758 51.6335 70.585L51.6342 76.3835C51.6346 79.7168 49.7926 82.7774 46.847 84.3377L28.831 93.8809L11.1543 103.832C9.22928 104.916 6.79019 104.234 5.70647 102.309C4.62276 100.383 5.30481 97.9444 7.22987 96.8607L24.9957 86.8594L43.1023 77.2682C43.4296 77.0949 43.6343 76.7548 43.6342 76.3844L43.6335 70.586C43.6332 68.3768 45.4239 66.5857 47.633 66.5855Z" />
</svg>
